<svg xmlns="http://www.w3.org/2000/svg" width="150" height="97" viewBox="0 0 150 97">
  <g fill="none" fill-rule="evenodd" transform="translate(3 3)">
    <path fill="#000" d="M23 12L24.5 12C25.3284271 12 26 12.7404521 26 13.6538462L26 55 23 55 23 12zM33 43L36 45.2029316 36 86.344161C36 87.2586556 35.3284271 88 34.5 88L33 88 33 43z"/>
    <path stroke="#000" stroke-width="2.667" d="M44.7559228,-5.54223334e-13 C43.3333333,29.8591842 30,36.4945585 24.2189419,40.6860638 C13.0314026,48.7974906 0,44.7384291 0,39.8122457 C0,29.8591842 50,43.1299328 50,63.0360556 C50,82.9421785 13.3777769,80.0465193 3.33333333,76.3068042"/>
    <text fill="#000" font-family="Lato-Regular, Lato" font-size="32" letter-spacing=".686">
      <tspan x="42" y="49">arolina</tspan>
    </text>
    <text fill="#000" font-family="Lato-Regular, Lato" font-size="32" letter-spacing="5.2">
      <tspan x="58" y="75">udek</tspan>
    </text>
  </g>
</svg>
